<mxfile host="Electron" modified="2023-06-20T17:03:50.762Z" agent="Mozilla/5.0 (Windows NT 10.0; Win64; x64) AppleWebKit/537.36 (KHTML, like Gecko) draw.io/21.2.8 Chrome/112.0.5615.165 Electron/24.2.0 Safari/537.36" etag="S5gRFTgol-RhUokTAjfn" version="21.2.8" type="device">
  <diagram name="Page-1" id="RI5AcVw6lWai6q6RAueT">
    <mxGraphModel dx="3452" dy="1573" grid="1" gridSize="10" guides="1" tooltips="1" connect="1" arrows="1" fold="1" page="1" pageScale="1" pageWidth="827" pageHeight="1169" math="0" shadow="0">
      <root>
        <mxCell id="0" />
        <mxCell id="1" parent="0" />
        <mxCell id="T9Rpsn0pCctgovdej0Oo-1" value="&lt;font size=&quot;3&quot;&gt;User&lt;/font&gt;" style="rounded=0;whiteSpace=wrap;html=1;" parent="1" vertex="1">
          <mxGeometry x="440" y="450" width="120" height="70" as="geometry" />
        </mxCell>
        <mxCell id="T9Rpsn0pCctgovdej0Oo-2" value="&lt;font size=&quot;3&quot;&gt;Last&lt;br&gt;Name&lt;br&gt;&lt;/font&gt;" style="ellipse;whiteSpace=wrap;html=1;" parent="1" vertex="1">
          <mxGeometry x="340" y="280" width="120" height="80" as="geometry" />
        </mxCell>
        <mxCell id="T9Rpsn0pCctgovdej0Oo-3" value="&lt;font size=&quot;3&quot;&gt;Phone&lt;/font&gt;" style="ellipse;whiteSpace=wrap;html=1;" parent="1" vertex="1">
          <mxGeometry x="510" y="280" width="120" height="80" as="geometry" />
        </mxCell>
        <mxCell id="T9Rpsn0pCctgovdej0Oo-4" value="&lt;font size=&quot;3&quot;&gt;First&lt;br&gt;Name&lt;/font&gt;" style="ellipse;whiteSpace=wrap;html=1;" parent="1" vertex="1">
          <mxGeometry x="230" y="360" width="120" height="80" as="geometry" />
        </mxCell>
        <mxCell id="T9Rpsn0pCctgovdej0Oo-5" value="&lt;font size=&quot;3&quot;&gt;Email&lt;/font&gt;" style="ellipse;whiteSpace=wrap;html=1;" parent="1" vertex="1">
          <mxGeometry x="630" y="360" width="120" height="80" as="geometry" />
        </mxCell>
        <mxCell id="T9Rpsn0pCctgovdej0Oo-6" value="" style="endArrow=none;html=1;rounded=0;" parent="1" edge="1">
          <mxGeometry width="50" height="50" relative="1" as="geometry">
            <mxPoint x="200" y="480" as="sourcePoint" />
            <mxPoint x="440" y="480" as="targetPoint" />
          </mxGeometry>
        </mxCell>
        <mxCell id="T9Rpsn0pCctgovdej0Oo-8" value="" style="endArrow=none;html=1;rounded=0;entryX=0;entryY=0;entryDx=0;entryDy=0;exitX=1;exitY=1;exitDx=0;exitDy=0;" parent="1" source="T9Rpsn0pCctgovdej0Oo-4" target="T9Rpsn0pCctgovdej0Oo-1" edge="1">
          <mxGeometry width="50" height="50" relative="1" as="geometry">
            <mxPoint x="400" y="400" as="sourcePoint" />
            <mxPoint x="450" y="350" as="targetPoint" />
          </mxGeometry>
        </mxCell>
        <mxCell id="T9Rpsn0pCctgovdej0Oo-9" value="" style="endArrow=none;html=1;rounded=0;exitX=0.5;exitY=0;exitDx=0;exitDy=0;entryX=0.5;entryY=1;entryDx=0;entryDy=0;" parent="1" source="T9Rpsn0pCctgovdej0Oo-1" target="T9Rpsn0pCctgovdej0Oo-2" edge="1">
          <mxGeometry width="50" height="50" relative="1" as="geometry">
            <mxPoint x="460" y="450" as="sourcePoint" />
            <mxPoint x="500" y="400" as="targetPoint" />
          </mxGeometry>
        </mxCell>
        <mxCell id="T9Rpsn0pCctgovdej0Oo-10" value="" style="endArrow=none;html=1;rounded=0;exitX=0.75;exitY=0;exitDx=0;exitDy=0;entryX=0.5;entryY=1;entryDx=0;entryDy=0;" parent="1" source="T9Rpsn0pCctgovdej0Oo-1" target="T9Rpsn0pCctgovdej0Oo-3" edge="1">
          <mxGeometry width="50" height="50" relative="1" as="geometry">
            <mxPoint x="590" y="490" as="sourcePoint" />
            <mxPoint x="640" y="440" as="targetPoint" />
          </mxGeometry>
        </mxCell>
        <mxCell id="T9Rpsn0pCctgovdej0Oo-11" value="&lt;font size=&quot;3&quot;&gt;Apply For&lt;/font&gt;" style="rhombus;whiteSpace=wrap;html=1;" parent="1" vertex="1">
          <mxGeometry x="50" y="420" width="150" height="123.75" as="geometry" />
        </mxCell>
        <mxCell id="T9Rpsn0pCctgovdej0Oo-12" value="&lt;font size=&quot;3&quot;&gt;Vehicle&lt;br&gt;Registration&lt;br&gt;&lt;/font&gt;" style="rounded=0;whiteSpace=wrap;html=1;" parent="1" vertex="1">
          <mxGeometry x="-250" y="450" width="130" height="70" as="geometry" />
        </mxCell>
        <mxCell id="T9Rpsn0pCctgovdej0Oo-14" value="" style="endArrow=none;html=1;rounded=0;entryX=0;entryY=0.5;entryDx=0;entryDy=0;" parent="1" target="T9Rpsn0pCctgovdej0Oo-11" edge="1">
          <mxGeometry width="50" height="50" relative="1" as="geometry">
            <mxPoint x="-120" y="480" as="sourcePoint" />
            <mxPoint x="-70" y="430" as="targetPoint" />
          </mxGeometry>
        </mxCell>
        <mxCell id="T9Rpsn0pCctgovdej0Oo-15" value="&lt;font size=&quot;3&quot;&gt;RC&lt;/font&gt;" style="ellipse;whiteSpace=wrap;html=1;" parent="1" vertex="1">
          <mxGeometry x="-250" y="585" width="120" height="80" as="geometry" />
        </mxCell>
        <mxCell id="T9Rpsn0pCctgovdej0Oo-16" value="&lt;font size=&quot;3&quot;&gt;PUC&lt;/font&gt;" style="ellipse;whiteSpace=wrap;html=1;" parent="1" vertex="1">
          <mxGeometry x="-473" y="520" width="120" height="80" as="geometry" />
        </mxCell>
        <mxCell id="T9Rpsn0pCctgovdej0Oo-17" value="&lt;font size=&quot;3&quot;&gt;License&lt;br&gt;Number&lt;br&gt;&lt;/font&gt;" style="ellipse;whiteSpace=wrap;html=1;" parent="1" vertex="1">
          <mxGeometry x="-473" y="370" width="120" height="80" as="geometry" />
        </mxCell>
        <mxCell id="T9Rpsn0pCctgovdej0Oo-18" value="&lt;font size=&quot;3&quot;&gt;Vehicle&lt;br&gt;Number&lt;/font&gt;" style="ellipse;whiteSpace=wrap;html=1;" parent="1" vertex="1">
          <mxGeometry x="-245" y="300" width="120" height="80" as="geometry" />
        </mxCell>
        <mxCell id="T9Rpsn0pCctgovdej0Oo-19" value="" style="endArrow=none;html=1;rounded=0;entryX=0;entryY=1;entryDx=0;entryDy=0;" parent="1" target="T9Rpsn0pCctgovdej0Oo-12" edge="1">
          <mxGeometry width="50" height="50" relative="1" as="geometry">
            <mxPoint x="-350" y="560" as="sourcePoint" />
            <mxPoint x="-300" y="510" as="targetPoint" />
          </mxGeometry>
        </mxCell>
        <mxCell id="T9Rpsn0pCctgovdej0Oo-20" value="" style="endArrow=none;html=1;rounded=0;entryX=0;entryY=0;entryDx=0;entryDy=0;" parent="1" target="T9Rpsn0pCctgovdej0Oo-12" edge="1">
          <mxGeometry width="50" height="50" relative="1" as="geometry">
            <mxPoint x="-350" y="420" as="sourcePoint" />
            <mxPoint x="-300" y="370" as="targetPoint" />
          </mxGeometry>
        </mxCell>
        <mxCell id="T9Rpsn0pCctgovdej0Oo-21" value="" style="endArrow=none;html=1;rounded=0;entryX=0.5;entryY=0;entryDx=0;entryDy=0;exitX=0.5;exitY=1;exitDx=0;exitDy=0;" parent="1" source="T9Rpsn0pCctgovdej0Oo-18" target="T9Rpsn0pCctgovdej0Oo-12" edge="1">
          <mxGeometry width="50" height="50" relative="1" as="geometry">
            <mxPoint x="-190" y="380" as="sourcePoint" />
            <mxPoint x="-140" y="330" as="targetPoint" />
          </mxGeometry>
        </mxCell>
        <mxCell id="T9Rpsn0pCctgovdej0Oo-22" value="" style="endArrow=none;html=1;rounded=0;" parent="1" edge="1">
          <mxGeometry width="50" height="50" relative="1" as="geometry">
            <mxPoint x="-190" y="580" as="sourcePoint" />
            <mxPoint x="-190" y="520" as="targetPoint" />
          </mxGeometry>
        </mxCell>
        <mxCell id="T9Rpsn0pCctgovdej0Oo-23" value="" style="endArrow=none;html=1;rounded=0;exitX=0;exitY=1;exitDx=0;exitDy=0;" parent="1" source="T9Rpsn0pCctgovdej0Oo-5" edge="1">
          <mxGeometry width="50" height="50" relative="1" as="geometry">
            <mxPoint x="450" y="570" as="sourcePoint" />
            <mxPoint x="560" y="450" as="targetPoint" />
          </mxGeometry>
        </mxCell>
        <mxCell id="T9Rpsn0pCctgovdej0Oo-24" value="" style="endArrow=none;html=1;rounded=0;exitX=0.5;exitY=0;exitDx=0;exitDy=0;entryX=0;entryY=1;entryDx=0;entryDy=0;" parent="1" source="T9Rpsn0pCctgovdej0Oo-25" target="T9Rpsn0pCctgovdej0Oo-1" edge="1">
          <mxGeometry width="50" height="50" relative="1" as="geometry">
            <mxPoint x="500" y="600" as="sourcePoint" />
            <mxPoint x="500" y="520" as="targetPoint" />
          </mxGeometry>
        </mxCell>
        <mxCell id="T9Rpsn0pCctgovdej0Oo-25" value="&lt;font size=&quot;3&quot;&gt;Can&lt;/font&gt;" style="rhombus;whiteSpace=wrap;html=1;" parent="1" vertex="1">
          <mxGeometry x="290" y="650" width="150" height="123.75" as="geometry" />
        </mxCell>
        <mxCell id="T9Rpsn0pCctgovdej0Oo-26" value="" style="endArrow=none;html=1;rounded=0;exitX=0.5;exitY=1;exitDx=0;exitDy=0;" parent="1" source="T9Rpsn0pCctgovdej0Oo-25" target="T9Rpsn0pCctgovdej0Oo-27" edge="1">
          <mxGeometry width="50" height="50" relative="1" as="geometry">
            <mxPoint x="370" y="840" as="sourcePoint" />
            <mxPoint x="370" y="770" as="targetPoint" />
          </mxGeometry>
        </mxCell>
        <mxCell id="T9Rpsn0pCctgovdej0Oo-27" value="&lt;font size=&quot;3&quot;&gt;Search By&lt;br&gt;Photo&lt;br&gt;&lt;/font&gt;" style="rounded=0;whiteSpace=wrap;html=1;" parent="1" vertex="1">
          <mxGeometry x="297.5" y="840" width="142.5" height="80" as="geometry" />
        </mxCell>
        <mxCell id="T9Rpsn0pCctgovdej0Oo-28" value="&lt;font size=&quot;3&quot;&gt;Path&lt;/font&gt;" style="ellipse;whiteSpace=wrap;html=1;" parent="1" vertex="1">
          <mxGeometry x="100" y="840" width="120" height="80" as="geometry" />
        </mxCell>
        <mxCell id="T9Rpsn0pCctgovdej0Oo-29" value="&lt;font size=&quot;3&quot;&gt;Date&lt;/font&gt;" style="ellipse;whiteSpace=wrap;html=1;" parent="1" vertex="1">
          <mxGeometry x="220" y="960" width="120" height="80" as="geometry" />
        </mxCell>
        <mxCell id="T9Rpsn0pCctgovdej0Oo-30" value="&lt;font size=&quot;3&quot;&gt;Time&lt;/font&gt;" style="ellipse;whiteSpace=wrap;html=1;" parent="1" vertex="1">
          <mxGeometry x="390" y="960" width="120" height="80" as="geometry" />
        </mxCell>
        <mxCell id="T9Rpsn0pCctgovdej0Oo-31" value="&lt;font size=&quot;3&quot;&gt;Vehicle&lt;br&gt;Number&lt;br&gt;&lt;/font&gt;" style="ellipse;whiteSpace=wrap;html=1;" parent="1" vertex="1">
          <mxGeometry x="520" y="840" width="120" height="80" as="geometry" />
        </mxCell>
        <mxCell id="T9Rpsn0pCctgovdej0Oo-32" value="" style="endArrow=none;html=1;rounded=0;entryX=0;entryY=0.5;entryDx=0;entryDy=0;" parent="1" target="T9Rpsn0pCctgovdej0Oo-27" edge="1">
          <mxGeometry width="50" height="50" relative="1" as="geometry">
            <mxPoint x="220" y="880" as="sourcePoint" />
            <mxPoint x="270" y="830" as="targetPoint" />
          </mxGeometry>
        </mxCell>
        <mxCell id="T9Rpsn0pCctgovdej0Oo-33" value="" style="endArrow=none;html=1;rounded=0;exitX=0.5;exitY=0;exitDx=0;exitDy=0;entryX=0.25;entryY=1;entryDx=0;entryDy=0;" parent="1" source="T9Rpsn0pCctgovdej0Oo-29" target="T9Rpsn0pCctgovdej0Oo-27" edge="1">
          <mxGeometry width="50" height="50" relative="1" as="geometry">
            <mxPoint x="350" y="890" as="sourcePoint" />
            <mxPoint x="400" y="840" as="targetPoint" />
          </mxGeometry>
        </mxCell>
        <mxCell id="T9Rpsn0pCctgovdej0Oo-34" value="" style="endArrow=none;html=1;rounded=0;exitX=0.5;exitY=0;exitDx=0;exitDy=0;" parent="1" source="T9Rpsn0pCctgovdej0Oo-30" edge="1">
          <mxGeometry width="50" height="50" relative="1" as="geometry">
            <mxPoint x="350" y="970" as="sourcePoint" />
            <mxPoint x="400" y="920" as="targetPoint" />
          </mxGeometry>
        </mxCell>
        <mxCell id="T9Rpsn0pCctgovdej0Oo-35" value="" style="endArrow=none;html=1;rounded=0;entryX=0;entryY=0.5;entryDx=0;entryDy=0;" parent="1" target="T9Rpsn0pCctgovdej0Oo-31" edge="1">
          <mxGeometry width="50" height="50" relative="1" as="geometry">
            <mxPoint x="440" y="880" as="sourcePoint" />
            <mxPoint x="490" y="830" as="targetPoint" />
          </mxGeometry>
        </mxCell>
        <mxCell id="T9Rpsn0pCctgovdej0Oo-36" value="" style="endArrow=none;html=1;rounded=0;exitX=0.5;exitY=0;exitDx=0;exitDy=0;" parent="1" source="T9Rpsn0pCctgovdej0Oo-38" edge="1">
          <mxGeometry width="50" height="50" relative="1" as="geometry">
            <mxPoint x="630" y="650" as="sourcePoint" />
            <mxPoint x="560" y="520" as="targetPoint" />
          </mxGeometry>
        </mxCell>
        <mxCell id="T9Rpsn0pCctgovdej0Oo-38" value="&lt;font size=&quot;3&quot;&gt;Can&lt;/font&gt;" style="rhombus;whiteSpace=wrap;html=1;" parent="1" vertex="1">
          <mxGeometry x="730" y="650" width="150" height="123.75" as="geometry" />
        </mxCell>
        <mxCell id="T9Rpsn0pCctgovdej0Oo-39" value="&lt;font size=&quot;3&quot;&gt;Video Access&lt;br&gt;Path&lt;br&gt;&lt;/font&gt;" style="ellipse;whiteSpace=wrap;html=1;" parent="1" vertex="1">
          <mxGeometry x="960" y="740" width="120" height="80" as="geometry" />
        </mxCell>
        <mxCell id="T9Rpsn0pCctgovdej0Oo-41" value="&lt;font size=&quot;3&quot;&gt;Search By&lt;br&gt;Video&lt;br&gt;&lt;/font&gt;" style="rounded=0;whiteSpace=wrap;html=1;" parent="1" vertex="1">
          <mxGeometry x="740" y="850" width="142.5" height="80" as="geometry" />
        </mxCell>
        <mxCell id="T9Rpsn0pCctgovdej0Oo-42" value="" style="endArrow=none;html=1;rounded=0;" parent="1" source="T9Rpsn0pCctgovdej0Oo-38" edge="1">
          <mxGeometry width="50" height="50" relative="1" as="geometry">
            <mxPoint x="805" y="823.75" as="sourcePoint" />
            <mxPoint x="805" y="844.4606781186548" as="targetPoint" />
          </mxGeometry>
        </mxCell>
        <mxCell id="T9Rpsn0pCctgovdej0Oo-43" value="&lt;font size=&quot;3&quot;&gt;Live Video&lt;/font&gt;" style="ellipse;whiteSpace=wrap;html=1;" parent="1" vertex="1">
          <mxGeometry x="970" y="870" width="120" height="80" as="geometry" />
        </mxCell>
        <mxCell id="T9Rpsn0pCctgovdej0Oo-44" value="&lt;font size=&quot;3&quot;&gt;Location&lt;/font&gt;" style="ellipse;whiteSpace=wrap;html=1;" parent="1" vertex="1">
          <mxGeometry x="670" y="1000" width="120" height="80" as="geometry" />
        </mxCell>
        <mxCell id="T9Rpsn0pCctgovdej0Oo-45" value="&lt;font size=&quot;3&quot;&gt;Number&lt;br&gt;Plate&lt;/font&gt;" style="ellipse;whiteSpace=wrap;html=1;" parent="1" vertex="1">
          <mxGeometry x="882.5" y="1000" width="120" height="80" as="geometry" />
        </mxCell>
        <mxCell id="T9Rpsn0pCctgovdej0Oo-46" value="" style="endArrow=none;html=1;rounded=0;entryX=0;entryY=1;entryDx=0;entryDy=0;" parent="1" target="T9Rpsn0pCctgovdej0Oo-39" edge="1">
          <mxGeometry width="50" height="50" relative="1" as="geometry">
            <mxPoint x="880" y="850" as="sourcePoint" />
            <mxPoint x="930" y="800" as="targetPoint" />
          </mxGeometry>
        </mxCell>
        <mxCell id="T9Rpsn0pCctgovdej0Oo-47" value="" style="endArrow=none;html=1;rounded=0;entryX=0;entryY=0.5;entryDx=0;entryDy=0;exitX=1;exitY=0.75;exitDx=0;exitDy=0;" parent="1" source="T9Rpsn0pCctgovdej0Oo-41" target="T9Rpsn0pCctgovdej0Oo-43" edge="1">
          <mxGeometry width="50" height="50" relative="1" as="geometry">
            <mxPoint x="880" y="900" as="sourcePoint" />
            <mxPoint x="930" y="850" as="targetPoint" />
          </mxGeometry>
        </mxCell>
        <mxCell id="T9Rpsn0pCctgovdej0Oo-48" value="" style="endArrow=none;html=1;rounded=0;entryX=0.25;entryY=1;entryDx=0;entryDy=0;" parent="1" target="T9Rpsn0pCctgovdej0Oo-41" edge="1">
          <mxGeometry width="50" height="50" relative="1" as="geometry">
            <mxPoint x="740" y="1000" as="sourcePoint" />
            <mxPoint x="790" y="950" as="targetPoint" />
          </mxGeometry>
        </mxCell>
        <mxCell id="T9Rpsn0pCctgovdej0Oo-49" value="" style="endArrow=none;html=1;rounded=0;exitX=0.5;exitY=0;exitDx=0;exitDy=0;" parent="1" source="T9Rpsn0pCctgovdej0Oo-45" edge="1">
          <mxGeometry width="50" height="50" relative="1" as="geometry">
            <mxPoint x="810" y="980" as="sourcePoint" />
            <mxPoint x="860" y="930" as="targetPoint" />
          </mxGeometry>
        </mxCell>
        <mxCell id="T9Rpsn0pCctgovdej0Oo-51" value="" style="endArrow=none;html=1;rounded=0;entryX=0;entryY=0.5;entryDx=0;entryDy=0;" parent="1" target="T9Rpsn0pCctgovdej0Oo-52" edge="1">
          <mxGeometry width="50" height="50" relative="1" as="geometry">
            <mxPoint x="560" y="480" as="sourcePoint" />
            <mxPoint x="880" y="480" as="targetPoint" />
          </mxGeometry>
        </mxCell>
        <mxCell id="T9Rpsn0pCctgovdej0Oo-52" value="&lt;font size=&quot;3&quot;&gt;Gives&lt;/font&gt;" style="rhombus;whiteSpace=wrap;html=1;" parent="1" vertex="1">
          <mxGeometry x="1130" y="420" width="150" height="123.75" as="geometry" />
        </mxCell>
        <mxCell id="T9Rpsn0pCctgovdej0Oo-54" value="&lt;font size=&quot;3&quot;&gt;Penalty&lt;br&gt;&lt;/font&gt;" style="rounded=0;whiteSpace=wrap;html=1;" parent="1" vertex="1">
          <mxGeometry x="1490" y="441.88" width="142.5" height="80" as="geometry" />
        </mxCell>
        <mxCell id="T9Rpsn0pCctgovdej0Oo-55" value="" style="endArrow=none;html=1;rounded=0;entryX=0;entryY=0.5;entryDx=0;entryDy=0;" parent="1" target="T9Rpsn0pCctgovdej0Oo-54" edge="1">
          <mxGeometry width="50" height="50" relative="1" as="geometry">
            <mxPoint x="1280" y="480" as="sourcePoint" />
            <mxPoint x="1330" y="430" as="targetPoint" />
          </mxGeometry>
        </mxCell>
        <mxCell id="T9Rpsn0pCctgovdej0Oo-56" value="&lt;font size=&quot;3&quot;&gt;Location&lt;br&gt;&lt;/font&gt;" style="ellipse;whiteSpace=wrap;html=1;" parent="1" vertex="1">
          <mxGeometry x="1501.25" y="200" width="120" height="80" as="geometry" />
        </mxCell>
        <mxCell id="T9Rpsn0pCctgovdej0Oo-57" value="&lt;font size=&quot;3&quot;&gt;Date&lt;br&gt;&lt;/font&gt;" style="ellipse;whiteSpace=wrap;html=1;" parent="1" vertex="1">
          <mxGeometry x="1820" y="440" width="120" height="80" as="geometry" />
        </mxCell>
        <mxCell id="T9Rpsn0pCctgovdej0Oo-58" value="&lt;font size=&quot;3&quot;&gt;Fined&lt;br&gt;Amount&lt;br&gt;&lt;/font&gt;" style="ellipse;whiteSpace=wrap;html=1;" parent="1" vertex="1">
          <mxGeometry x="1750" y="580" width="120" height="80" as="geometry" />
        </mxCell>
        <mxCell id="T9Rpsn0pCctgovdej0Oo-59" value="&lt;font size=&quot;3&quot;&gt;Remark&lt;br&gt;&lt;/font&gt;" style="ellipse;whiteSpace=wrap;html=1;" parent="1" vertex="1">
          <mxGeometry x="1501.25" y="640" width="120" height="80" as="geometry" />
        </mxCell>
        <mxCell id="T9Rpsn0pCctgovdej0Oo-60" value="&lt;font size=&quot;3&quot;&gt;Time&lt;br&gt;&lt;/font&gt;" style="ellipse;whiteSpace=wrap;html=1;" parent="1" vertex="1">
          <mxGeometry x="1750" y="260" width="120" height="80" as="geometry" />
        </mxCell>
        <mxCell id="T9Rpsn0pCctgovdej0Oo-61" value="" style="endArrow=none;html=1;rounded=0;" parent="1" source="T9Rpsn0pCctgovdej0Oo-54" edge="1">
          <mxGeometry width="50" height="50" relative="1" as="geometry">
            <mxPoint x="1510" y="330" as="sourcePoint" />
            <mxPoint x="1560" y="280" as="targetPoint" />
          </mxGeometry>
        </mxCell>
        <mxCell id="T9Rpsn0pCctgovdej0Oo-62" value="" style="endArrow=none;html=1;rounded=0;exitX=1;exitY=0;exitDx=0;exitDy=0;entryX=0;entryY=1;entryDx=0;entryDy=0;" parent="1" source="T9Rpsn0pCctgovdej0Oo-54" target="T9Rpsn0pCctgovdej0Oo-60" edge="1">
          <mxGeometry width="50" height="50" relative="1" as="geometry">
            <mxPoint x="1730" y="410" as="sourcePoint" />
            <mxPoint x="1780" y="360" as="targetPoint" />
          </mxGeometry>
        </mxCell>
        <mxCell id="T9Rpsn0pCctgovdej0Oo-63" value="" style="endArrow=none;html=1;rounded=0;exitX=0;exitY=0.5;exitDx=0;exitDy=0;entryX=1;entryY=0.5;entryDx=0;entryDy=0;" parent="1" source="T9Rpsn0pCctgovdej0Oo-57" target="T9Rpsn0pCctgovdej0Oo-54" edge="1">
          <mxGeometry width="50" height="50" relative="1" as="geometry">
            <mxPoint x="1580" y="570" as="sourcePoint" />
            <mxPoint x="1630" y="520" as="targetPoint" />
          </mxGeometry>
        </mxCell>
        <mxCell id="T9Rpsn0pCctgovdej0Oo-64" value="" style="endArrow=none;html=1;rounded=0;exitX=0.056;exitY=0.216;exitDx=0;exitDy=0;exitPerimeter=0;" parent="1" source="T9Rpsn0pCctgovdej0Oo-58" edge="1">
          <mxGeometry width="50" height="50" relative="1" as="geometry">
            <mxPoint x="1580" y="570" as="sourcePoint" />
            <mxPoint x="1630" y="520" as="targetPoint" />
          </mxGeometry>
        </mxCell>
        <mxCell id="T9Rpsn0pCctgovdej0Oo-65" value="" style="endArrow=none;html=1;rounded=0;exitX=0.5;exitY=0;exitDx=0;exitDy=0;" parent="1" source="T9Rpsn0pCctgovdej0Oo-59" edge="1">
          <mxGeometry width="50" height="50" relative="1" as="geometry">
            <mxPoint x="1510" y="570" as="sourcePoint" />
            <mxPoint x="1560" y="520" as="targetPoint" />
          </mxGeometry>
        </mxCell>
        <mxCell id="T9Rpsn0pCctgovdej0Oo-75" value="&lt;font style=&quot;font-size: 24px;&quot;&gt;1&lt;/font&gt;" style="text;html=1;strokeColor=none;fillColor=none;align=center;verticalAlign=middle;whiteSpace=wrap;rounded=0;" parent="1" vertex="1">
          <mxGeometry x="-110" y="430" width="60" height="30" as="geometry" />
        </mxCell>
        <mxCell id="T9Rpsn0pCctgovdej0Oo-78" value="&lt;font style=&quot;font-size: 24px;&quot;&gt;1&lt;/font&gt;" style="text;html=1;strokeColor=none;fillColor=none;align=center;verticalAlign=middle;whiteSpace=wrap;rounded=0;" parent="1" vertex="1">
          <mxGeometry x="370" y="800" width="60" height="30" as="geometry" />
        </mxCell>
        <mxCell id="T9Rpsn0pCctgovdej0Oo-79" value="&lt;font style=&quot;font-size: 24px;&quot;&gt;1&lt;/font&gt;" style="text;html=1;strokeColor=none;fillColor=none;align=center;verticalAlign=middle;whiteSpace=wrap;rounded=0;" parent="1" vertex="1">
          <mxGeometry x="800" y="810" width="60" height="30" as="geometry" />
        </mxCell>
        <mxCell id="T9Rpsn0pCctgovdej0Oo-80" value="&lt;font style=&quot;font-size: 24px;&quot;&gt;1&lt;/font&gt;" style="text;html=1;strokeColor=none;fillColor=none;align=center;verticalAlign=middle;whiteSpace=wrap;rounded=0;" parent="1" vertex="1">
          <mxGeometry x="1430" y="430" width="60" height="30" as="geometry" />
        </mxCell>
        <mxCell id="T9Rpsn0pCctgovdej0Oo-81" value="&lt;span style=&quot;font-size: 24px;&quot;&gt;N&lt;/span&gt;" style="text;html=1;strokeColor=none;fillColor=none;align=center;verticalAlign=middle;whiteSpace=wrap;rounded=0;" parent="1" vertex="1">
          <mxGeometry x="190" y="440" width="60" height="30" as="geometry" />
        </mxCell>
        <mxCell id="T9Rpsn0pCctgovdej0Oo-83" value="&lt;span style=&quot;font-size: 24px;&quot;&gt;N&lt;/span&gt;" style="text;html=1;strokeColor=none;fillColor=none;align=center;verticalAlign=middle;whiteSpace=wrap;rounded=0;" parent="1" vertex="1">
          <mxGeometry x="1080" y="430" width="60" height="30" as="geometry" />
        </mxCell>
        <mxCell id="T9Rpsn0pCctgovdej0Oo-84" value="&lt;span style=&quot;font-size: 24px;&quot;&gt;N&lt;/span&gt;" style="text;html=1;strokeColor=none;fillColor=none;align=center;verticalAlign=middle;whiteSpace=wrap;rounded=0;" parent="1" vertex="1">
          <mxGeometry x="400" y="600" width="60" height="30" as="geometry" />
        </mxCell>
        <mxCell id="T9Rpsn0pCctgovdej0Oo-85" value="&lt;span style=&quot;font-size: 24px;&quot;&gt;N&lt;/span&gt;" style="text;html=1;strokeColor=none;fillColor=none;align=center;verticalAlign=middle;whiteSpace=wrap;rounded=0;" parent="1" vertex="1">
          <mxGeometry x="780" y="600" width="60" height="30" as="geometry" />
        </mxCell>
        <mxCell id="T9Rpsn0pCctgovdej0Oo-87" value="&lt;font style=&quot;font-size: 24px;&quot;&gt;1&lt;/font&gt;" style="text;html=1;strokeColor=none;fillColor=none;align=center;verticalAlign=middle;whiteSpace=wrap;rounded=0;" parent="1" vertex="1">
          <mxGeometry x="580" y="491.88" width="60" height="30" as="geometry" />
        </mxCell>
        <mxCell id="T9Rpsn0pCctgovdej0Oo-88" value="&lt;font style=&quot;font-size: 24px;&quot;&gt;1&lt;/font&gt;" style="text;html=1;strokeColor=none;fillColor=none;align=center;verticalAlign=middle;whiteSpace=wrap;rounded=0;" parent="1" vertex="1">
          <mxGeometry x="353" y="491.88" width="60" height="30" as="geometry" />
        </mxCell>
      </root>
    </mxGraphModel>
  </diagram>
</mxfile>
